<?xml version="1.0" encoding="UTF-8"?><svg id="Layer_2" xmlns="http://www.w3.org/2000/svg" viewBox="0 0 129.83 147.43"><g id="Layer_1-2"><g><path d="M2.85,101.53s0,.05,.01,.07c0,.02,.02,.03,.03,.05,3.14,10.18,8.81,19.54,16.43,27.06,.53,.52,1.22,.78,1.9,.78s1.39-.27,1.93-.8c1.05-1.06,1.04-2.77-.02-3.82-5.82-5.75-10.39-12.68-13.42-20.23,2.24,1.11,4.81,2.6,6.11,3.36,1.89,1.1,2.83,1.64,3.51,1.9,.64,.24,1.41,.39,2.23,.39,1.5,0,3.2-.47,4.66-1.65,1.93-1.56,4.01-4.87,2.95-11.75-.57-3.66-3.17-6.27-5.47-8.56-2.76-2.76-3.32-3.65-2.85-4.53,.06-.11,.11-.18,.11-.2,.74-.07,2.96,1.08,4.3,1.78,2.97,1.56,6.35,3.32,9.91,2.93,4.49-.5,6.34-3.75,7.83-6.36,1.37-2.4,2.65-4.66,5.87-6.06,7.71-3.35,8.57-6.74,9.43-12.43,.15-.95,.3-1.99,.52-3.15,1.66-8.71-.54-11.29-7.56-14.18-1.19-.49-2.14-1.56-2.8-3.18-1.11-2.72-1.06-6.03-.77-7.43,2.19-.65,9.72,.05,13.12,1.88,1.93,1.04,4.76,5.75,6.63,8.86,2.67,4.44,3.89,6.47,6.17,6.47,1.79,0,4.68-1.02,6.78-3.26,1.85-1.97,2.73-4.49,2.55-7.3-.19-3.03,2.26-9.86,4.36-14.74,2.44,.99,4.84,2.1,7.13,3.41,1.3,.75,2.95,.29,3.69-1,.74-1.3,.29-2.95-1-3.69-3.3-1.89-6.77-3.49-10.32-4.77-2.09-.74-4.22-1.36-6.36-1.88,1.87-2.07,3.05-4.79,3.05-7.8,0-6.45-5.24-11.69-11.69-11.69-2.19,0-4.33,.61-6.19,1.77-1.27,.79-1.65,2.46-.86,3.73s2.46,1.65,3.73,.87c1-.62,2.15-.95,3.33-.95,3.46,0,6.28,2.82,6.28,6.28s-2.81,6.28-6.27,6.28c-.12-.02-.24-.03-.3-.04-.13-.01-.25-.02-.38-.03-3.15-.34-5.61-2.98-5.61-6.21,0-1.49-1.21-2.7-2.7-2.7s-2.7,1.21-2.7,2.7c0,2.2,.64,4.23,1.7,5.99C27.44,19.31,0,47.77,0,82.51c0,6.46,.95,12.83,2.82,18.94,0,.03,.02,.06,.03,.08ZM64.91,23.01c1.46,0,2.84,.07,4.16,.17v6.58c0,1.49,1.21,2.7,2.7,2.7s2.7-1.21,2.7-2.7v-5.96c2.6,.42,5.17,1.02,7.71,1.78-1.84,4.31-4.95,12.35-4.66,16.93,.08,1.28-.26,2.32-1.03,3.18-.67,.75-1.52,1.19-2.14,1.42-.63-.88-1.56-2.43-2.29-3.65-2.56-4.26-5.46-9.09-8.7-10.83-4.46-2.41-13.72-3.53-17.68-2.14-1.41,.49-2.36,1.3-2.84,2.41-1.07,2.5-1.09,7.96,.6,12.08,1.21,2.97,3.2,5.09,5.74,6.14,4.92,2.03,5.44,2.24,4.31,8.16-.24,1.24-.4,2.35-.56,3.36-.71,4.69-.9,5.95-6.24,8.28-4.87,2.12-6.92,5.72-8.41,8.35-1.49,2.62-2.11,3.48-3.72,3.66-1.92,.24-4.51-1.15-6.8-2.34-3.3-1.73-8.84-4.63-11.68,.65-2.49,4.64,1.14,8.27,3.79,10.92,1.8,1.8,3.66,3.66,3.95,5.57,.51,3.27,.16,5.7-.95,6.66-.66,.58-1.47,.5-1.61,.47-.35-.15-1.66-.91-2.72-1.52-5.13-2.99-8.52-4.75-11.03-5.28-1.37-5.04-2.1-10.25-2.1-15.53,0-32.81,26.69-59.5,59.5-59.5Z"/><path d="M46.43,100.52c-3.64,8.81,4.07,12.59,9.7,15.35,4.1,2.01,8.34,4.08,9.52,7.5,3.39,9.88,8.46,11.02,10.63,11.02,.5,0,.84-.06,.98-.09,.21-.04,.41-.11,.61-.21,.32-.15,7.79-3.82,9.33-11.87,.35-1.77,.55-3.43,.75-5.03,.56-4.47,.96-7.7,4.1-11.14,0,0,0,0,0,0,5.58-6.13,1.68-11.18-1.76-15.64-.72-.93-1.48-1.91-2.22-2.96-1.21-1.73-2.39-3.05-3.61-4.05-.51-5.98-5.48-10.7-11.58-10.7-6.46,0-11.71,5.24-11.71,11.69,0,1.1,.16,2.18,.46,3.23-.87,.35-1.71,.67-2.54,.97-4.7,1.71-9.14,3.33-12.68,11.94Zm26.46-22.42c3.46,0,6.27,2.82,6.27,6.28l.02-.09c-.03,.13-.04,.26-.05,.4-.15,3.35-2.88,5.97-6.22,5.99-.01,0-.03,0-.04,0-.01,0-.02,0-.03,0-2.23-.01-4.23-1.16-5.38-3.09-.59-.98-.88-2.06-.88-3.21,0-3.46,2.83-6.28,6.3-6.28Zm-8.58,14.25s.1,.08,.15,.13c.48,.51,1,.97,1.56,1.38,.1,.07,.2,.13,.31,.2,.52,.36,1.07,.67,1.64,.93,.1,.05,.2,.1,.31,.15,.61,.26,1.25,.46,1.91,.62v6.68c0,1.49,1.21,2.7,2.7,2.7s2.7-1.21,2.7-2.7v-6.69c.47-.11,.94-.25,1.39-.42,.1-.04,.21-.05,.31-.09,.04-.02,.08-.05,.12-.06,.6-.25,1.17-.55,1.71-.89,.12-.08,.23-.17,.35-.25,.43-.29,.83-.61,1.21-.95,.14-.12,.27-.25,.41-.38,.43-.42,.83-.87,1.19-1.36,.03-.04,.06-.07,.08-.1,.31-.43,.59-.88,.84-1.34,.15,.21,.31,.42,.46,.64,.79,1.13,1.6,2.18,2.37,3.17,3.76,4.87,4.35,6.15,2.05,8.68-4.31,4.71-4.88,9.28-5.48,14.12-.18,1.48-.38,3.02-.7,4.67-.83,4.37-4.52,6.94-5.87,7.75-.81-.19-3.16-1.25-5.26-7.34-1.92-5.53-7.41-8.21-12.25-10.59-6.92-3.39-8.58-4.82-7.08-8.43,2.63-6.41,5.23-7.35,9.53-8.92,1.04-.38,2.16-.79,3.36-1.3Z"/><path d="M28.33,65.39v6.72c0,1.49,1.21,2.7,2.7,2.7s2.7-1.21,2.7-2.7v-6.72c5.14-1.23,8.99-5.83,8.99-11.34,0-6.45-5.24-11.69-11.69-11.69s-11.69,5.24-11.69,11.69c0,5.51,3.84,10.12,8.99,11.34Zm2.7-17.63c3.46,0,6.28,2.82,6.28,6.28s-2.82,6.28-6.28,6.28-6.28-2.82-6.28-6.28,2.82-6.28,6.28-6.28Z"/><path d="M106.47,42.26c-.07,.12-.14,.23-.2,.35-.27,.5-.5,1.02-.69,1.56-.03,.07-.04,.15-.07,.23-.16,.47-.28,.96-.37,1.46-.02,.11-.05,.23-.07,.34-6.41,2.15-6.92,6.05-6.59,8.32,.37,2.45,.09,2.85-.37,3.51-1.08,1.55-2.03,3.32-1.74,7.89l.07,1.18c.48,8.06,1.22,10.84,13.39,15.71,5.1,2.04,4.73,4.16,2.78,10.55-1.02,3.34-2.17,7.13-1.85,11.22,.47,6.11,1.97,9.39,3.47,11.16-11.1,16.49-29.35,26.28-49.33,26.28-10.61,0-21.03-2.83-30.12-8.17-1.29-.76-2.95-.33-3.7,.96-.76,1.29-.33,2.95,.96,3.7,9.92,5.84,21.28,8.92,32.86,8.92,22.69,0,43.36-11.55,55.29-30.9,.02-.03,.03-.06,.05-.09,0,0,0-.02,.01-.02,6.26-10.18,9.57-21.9,9.57-33.9,0-8.97-1.82-17.64-5.37-25.81,2.39-2.19,3.83-5.31,3.83-8.65,0-6.44-5.24-11.68-11.68-11.68-1.77,0-3.46,.42-4.99,1.15-1.75-1.82-3.57-3.57-5.52-5.17-1.16-.95-2.86-.78-3.81,.37-.95,1.15-.78,2.86,.37,3.81,1.65,1.36,3.24,2.81,4.73,4.34-.05,.06-.08,.14-.13,.2-.29,.38-.55,.78-.79,1.19Zm10.94,68.24c-.51-1.31-1.02-3.32-1.25-6.34-.24-3.08,.71-6.2,1.63-9.23,1.78-5.87,4-13.18-5.95-17.15-9.56-3.82-9.6-4.5-9.99-11.01l-.07-1.2c-.2-3.06,.25-3.71,.77-4.45,1.08-1.55,1.92-3.17,1.29-7.4-.12-.81,.72-1.45,1.75-1.93,1.29,3.77,4.42,6.68,8.32,7.62v6.71c0,1.49,1.21,2.7,2.7,2.7s2.7-1.21,2.7-2.7v-6.69c.13-.03,.27-.05,.4-.09,0,0,.01,0,.02,0,3.11,7.34,4.69,15.13,4.69,23.17,0,9.81-2.42,19.41-7.01,27.99Zm5.46-62.45c0,2.26-1.19,4.34-3.13,5.46-.92,.54-1.99,.83-3.1,.84-.01,0-.02,0-.04,0-.02,0-.03,0-.05,0-3.37-.02-6.16-2.77-6.24-6.3,0-1.97,.9-3.78,2.51-4.99,1.08-.84,2.38-1.29,3.77-1.29,3.46,0,6.27,2.81,6.27,6.27Z"/></g></g></svg>